<?xml version="1.0" encoding="utf-8"?>
<!-- Generator: Adobe Illustrator 22.1.0, SVG Export Plug-In . SVG Version: 6.00 Build 0)  -->
<svg version="1.1" xmlns="http://www.w3.org/2000/svg" xmlns:xlink="http://www.w3.org/1999/xlink" x="0px" y="0px" viewBox="0 0 1280 800" enable-background="new 0 0 1280 800" xml:space="preserve">
    <g id="HUSET">
    </g>

    <a href="http://www.echoecho.com/htmllinks08.htm">
        <g id="Kælderen">


            <g id="Kælderen_1_">
                <polygon fill="#0F1548" stroke="#000000" stroke-width="0.5" stroke-miterlimit="10" points="117.5,659.5 318.5,545.5
			474.5,545.5 399.5,599.5 572.5,602.5 504.5,659.5 		" />
                <rect x="117.5" y="659.5" fill="#D3EBF1" stroke="#000000" stroke-width="0.5" stroke-miterlimit="10" width="387.5" height="8" />
                <polygon fill="#D3EBF1" stroke="#000000" stroke-width="0.5" stroke-miterlimit="10" points="504.5,667.5 571.5,609.5
			571.5,602.5 504.5,659.5 		" />
                <polygon fill="#D3EBF1" stroke="#000000" stroke-width="0.5" stroke-miterlimit="10" points="399.5,599.5 474.5,545.5
			474.5,555.5 414.4,599.8 		" />
            </g>

        </g>

    </a>
    <g id="Stuen">
        <g id="Stuen_1_">
            <polygon fill="#D3EBF1" stroke="#000000" stroke-width="0.5" stroke-miterlimit="10" points="117,582.2 345.4,582.2 450,513.7
			238.4,513.7 		" />

            <rect x="117" y="582.2" fill="#D3EBF1" stroke="#000000" stroke-width="0.5" stroke-miterlimit="10" width="228.4" height="10.8" />
            <polygon fill="#D3EBF1" stroke="#000000" stroke-width="0.5" stroke-miterlimit="10" points="344.8,582.8 449.4,514 449.4,522.7
			344.8,593 		" />
        </g>
    </g>
    <g id="Salon_K">
        <g id="SalonK">
            <polygon fill="#0F1548" stroke="#000000" stroke-width="0.5" stroke-miterlimit="10" points="117.5,505.5 318.5,391.5
			474.5,391.5 399.5,445.5 572.5,448.5 504.5,505.5 		" />
            <rect x="117.5" y="505.5" fill="#D3EBF1" stroke="#000000" stroke-width="0.5" stroke-miterlimit="10" width="387.5" height="8" />
            <polygon fill="#D3EBF1" stroke="#000000" stroke-width="0.5" stroke-miterlimit="10" points="504.5,513.5 571.5,455.5
			571.5,448.5 504.5,505.5 		" />
            <polygon fill="#D3EBF1" stroke="#000000" stroke-width="0.5" stroke-miterlimit="10" points="399.5,445.5 474.5,391.5
			474.5,401.5 414.4,445.8 		" />
        </g>
    </g>
    <g id="Teaterhuset">
        <g id="Teaterhuset_1_">
            <polygon fill="#D3EBF1" stroke="#000000" stroke-width="0.5" stroke-miterlimit="10" points="120,428 310,428 397,371 221,371
			" />
            <rect x="120" y="428" fill="#D3EBF1" stroke="#000000" stroke-width="0.5" stroke-miterlimit="10" width="190" height="9" />
            <polygon fill="#D3EBF1" stroke="#000000" stroke-width="0.5" stroke-miterlimit="10" points="309.5,428.5 396.5,371.3
			396.5,378.5 309.5,437 		" />
        </g>
    </g>
    <g id="Gårdhaven">
        <g id="Gårdhaven_1_">
            <polygon fill="#D3EBF1" stroke="#000000" stroke-width="0.5" stroke-miterlimit="10" points="468.5,580.5 549.5,522.5
			786.5,522.5 733.5,580.5 		" />
            <rect x="469" y="580" fill="#D3EBF1" stroke="#000000" stroke-width="0.5" stroke-miterlimit="10" width="264" height="8" />
            <polygon fill="#D3EBF1" stroke="#000000" stroke-width="0.5" stroke-miterlimit="10" points="732.5,588.5 786.5,529.5
			786.5,522.5 732.5,580.5 		" />
        </g>
    </g>
    <g id="Indgang">
        <g id="Indgangen">
            <rect x="704" y="659" fill="#D3EBF1" stroke="#000000" stroke-width="0.5" stroke-miterlimit="10" width="253.6" height="8" />
            <polygon fill="#D3EBF1" stroke="#000000" stroke-width="0.5" stroke-miterlimit="10" points="957.1,667.5 1009,608.5 1009,601.5
			957.1,659.5 		" />
            <polygon fill="#D3EBF1" stroke="#000000" stroke-width="0.5" stroke-miterlimit="10" points="790.6,601.5 853,523 853,532
			799,601.5 		" />
            <polygon fill="#D3EBF1" stroke="#000000" stroke-width="0.5" stroke-miterlimit="10" points="703.5,659.5 825.5,522.5
			852.5,522.5 790.5,601.5 1008.5,601.5 957.5,659.5 		" />
        </g>
    </g>
    <g id="Bastard">
        <g id="Bastard_1_">
            <polygon fill="#D3EBF1" stroke="#000000" stroke-width="0.5" stroke-miterlimit="10" points="736.5,498.5 804.5,441.5
			1094.5,442.5 1055.5,501.5 		" />
            <rect x="737" y="498" fill="#D3EBF1" stroke="#000000" stroke-width="0.5" stroke-miterlimit="10" width="318" height="8" />
            <polygon fill="#D3EBF1" stroke="#000000" stroke-width="0.5" stroke-miterlimit="10" points="1055.5,497.5 1094.5,442.5
			1094.5,449.5 1055.5,505.5 		" />
            <polygon fill="#D3EBF1" stroke="#000000" stroke-width="0.5" stroke-miterlimit="10" points="971.5,478.5 997.5,453.5
			1056.5,453.5 1037.5,481.5 968.5,481.5 		" />
            <polyline fill="none" stroke="#000000" stroke-width="0.5" stroke-miterlimit="10" points="997.5,454 997.5,463.5 1005.5,463.5
			1005.5,473.5 1015.5,473.5 1015.5,481.5 		" />
            <line fill="none" stroke="#000000" stroke-width="0.5" stroke-miterlimit="10" x1="1005.5" y1="473.5" x2="996.5" y2="481.5" />
            <line fill="none" stroke="#000000" stroke-width="0.5" stroke-miterlimit="10" x1="997.5" y1="463.5" x2="977.5" y2="481.5" />
            <line fill="none" stroke="#000000" stroke-width="0.5" stroke-miterlimit="10" x1="1015.5" y1="473.5" x2="1006.5" y2="481.5" />
            <line fill="none" stroke="#000000" stroke-width="0.5" stroke-miterlimit="10" x1="1005.3" y1="463.8" x2="987.5" y2="481.5" />
        </g>
    </g>
    <g id="Stardust">
        <g id="Stardust_1_">
            <polygon fill="#0F1548" points="667.5,409.9 750.4,340.4 1104,341.6 1056.4,413.5 		" />

            <rect x="668.1" y="409.2" fill="#D3EBF1" stroke="#000000" stroke-width="0.5" stroke-miterlimit="10" width="387.8" height="9.8" />
            <polygon fill="#D3EBF1" stroke="#000000" stroke-width="0.5" stroke-miterlimit="10" points="1056.4,408.6 1104,341.6 1104,350.1
			1056.4,418.4 		" />
            <polygon fill="#D3EBF1" stroke="#000000" stroke-width="0.5" stroke-miterlimit="10" points="954,385.5 985.7,355 1057.7,355
			1034.5,389.1 950.4,389.1 		" />
            <polyline fill="#D3EBF1" stroke="#000000" stroke-width="0.5" stroke-miterlimit="10" points="985.7,355.6 985.7,367.2
			995.5,367.2 995.5,379.4 1007.7,379.4 1007.7,389.1 		" />
            <line fill="none" stroke="#000000" stroke-width="0.5" stroke-miterlimit="10" x1="995.5" y1="379.4" x2="984.5" y2="389.1" />
            <line fill="none" stroke="#000000" stroke-width="0.5" stroke-miterlimit="10" x1="985.7" y1="367.2" x2="961.3" y2="389.1" />
            <line fill="none" stroke="#000000" stroke-width="0.5" stroke-miterlimit="10" x1="1007.7" y1="379.4" x2="996.7" y2="389.1" />
            <line fill="none" stroke="#000000" stroke-width="0.5" stroke-miterlimit="10" x1="995.3" y1="367.5" x2="973.5" y2="389.1" />
        </g>
    </g>
    <g id="Biografen">
        <g id="Biografen_1_">
            <polygon fill="#0F1548" points="683.5,309.9 766.4,240.4 1120,241.6 1072.4,313.5 		" />

            <rect x="684.1" y="309.2" fill="#D3EBF1" stroke="#000000" stroke-width="0.5" stroke-miterlimit="10" width="387.8" height="9.8" />
            <polygon fill="#D3EBF1" stroke="#000000" stroke-width="0.5" stroke-miterlimit="10" points="1072.4,308.6 1120,241.6 1120,250.1
			1072.4,318.4 		" />
            <polygon fill="#D3EBF1" stroke="#000000" stroke-width="0.5" stroke-miterlimit="10" points="970,285.5 1001.7,255 1073.7,255
			1050.5,289.1 966.4,289.1 		" />
            <polyline fill="none" stroke="#000000" stroke-width="0.5" stroke-miterlimit="10" points="1001.7,255.6 1001.7,267.2
			1011.5,267.2 1011.5,279.4 1023.7,279.4 1023.7,289.1 		" />
            <line fill="none" stroke="#000000" stroke-width="0.5" stroke-miterlimit="10" x1="1011.5" y1="279.4" x2="1000.5" y2="289.1" />
            <line fill="none" stroke="#000000" stroke-width="0.5" stroke-miterlimit="10" x1="1001.7" y1="267.2" x2="977.3" y2="289.1" />
            <line fill="none" stroke="#000000" stroke-width="0.5" stroke-miterlimit="10" x1="1023.7" y1="279.4" x2="1012.7" y2="289.1" />
            <line fill="none" stroke="#000000" stroke-width="0.5" stroke-miterlimit="10" x1="1011.3" y1="267.5" x2="989.5" y2="289.1" />
        </g>
    </g>
    <g id="Musikcafeen">
        <polygon id="plade-musik" fill="#0F1548" points="677.5,216.9 760.4,147.4 1114,148.6 1066.4,220.5 	" />
        <g id="Musikcafeen_1_">

            <rect x="678.1" y="216.2" fill="#D3EBF1" stroke="#000000" stroke-width="0.5" stroke-miterlimit="10" width="387.8" height="9.8" />
            <polygon fill="#D3EBF1" stroke="#000000" stroke-width="0.5" stroke-miterlimit="10" points="1066.4,215.6 1114,148.6 1114,157.1
			1066.4,225.4 		" />
            <polygon fill="#D3EBF1" stroke="#000000" stroke-width="0.5" stroke-miterlimit="10" points="964,192.5 995.7,162 1067.7,162
			1044.5,196.1 960.4,196.1 		" />
            <polyline fill="none" stroke="#000000" stroke-width="0.5" stroke-miterlimit="10" points="995.7,162.6 995.7,174.2 1005.5,174.2
			1005.5,186.4 1017.7,186.4 1017.7,196.1 		" />
            <line fill="none" stroke="#000000" stroke-width="0.5" stroke-miterlimit="10" x1="1005.5" y1="186.4" x2="994.5" y2="196.1" />
            <line fill="none" stroke="#000000" stroke-width="0.5" stroke-miterlimit="10" x1="995.7" y1="174.2" x2="971.3" y2="196.1" />
            <line fill="none" stroke="#000000" stroke-width="0.5" stroke-miterlimit="10" x1="1017.7" y1="186.4" x2="1006.7" y2="196.1" />
            <line fill="none" stroke="#000000" stroke-width="0.5" stroke-miterlimit="10" x1="1005.3" y1="174.5" x2="983.5" y2="196.1" />
        </g>
    </g>
    <g id="Xenon">
        <g id="Xenon_1_">
            <polygon fill="#0F1548" points="677.5,122.9 760.4,53.4 1114,54.6 1066.4,126.5 		" />

            <rect x="678.1" y="122.2" fill="#D3EBF1" stroke="#000000" stroke-width="0.5" stroke-miterlimit="10" width="387.8" height="9.8" />
            <polygon fill="#D3EBF1" stroke="#000000" stroke-width="0.5" stroke-miterlimit="10" points="1066.4,121.6 1114,54.6 1114,63.1
			1066.4,131.4 		" />
            <polygon fill="#D3EBF1" stroke="#000000" stroke-width="0.5" stroke-miterlimit="10" points="964,98.5 995.7,68 1067.7,68
			1044.5,102.1 960.4,102.1 		" />
            <polyline fill="none" stroke="#000000" stroke-width="0.5" stroke-miterlimit="10" points="995.7,68.6 995.7,80.2 1005.5,80.2
			1005.5,92.4 1017.7,92.4 1017.7,102.1 		" />
            <line fill="none" stroke="#000000" stroke-width="0.5" stroke-miterlimit="10" x1="1005.5" y1="92.4" x2="994.5" y2="102.1" />
            <line fill="none" stroke="#000000" stroke-width="0.5" stroke-miterlimit="10" x1="995.7" y1="80.2" x2="971.3" y2="102.1" />
            <line fill="none" stroke="#000000" stroke-width="0.5" stroke-miterlimit="10" x1="1017.7" y1="92.4" x2="1006.7" y2="102.1" />
            <line fill="none" stroke="#000000" stroke-width="0.5" stroke-miterlimit="10" x1="1005.3" y1="80.5" x2="983.5" y2="102.1" />
        </g>
    </g>
    <g id="_x31__sal">
        <g id="_x31_">
            <defs>
                <rect id="SVGID_1_" x="1160" y="348.8" width="24.9" height="46.2" />
            </defs>
            <clipPath id="SVGID_2_">
                <use xlink:href="#SVGID_1_" overflow="visible" />
            </clipPath>
            <path clip-path="url(#SVGID_2_)" fill="#1D1D1B" d="M1184.3,395h-10.5c-0.3,0-0.6-0.3-0.6-0.6c0-0.3,0.3-0.6,0.6-0.6h9.9v-4.2
			h-8.5c-0.3,0-0.6-0.3-0.6-0.6v-39.5c0-0.3,0.3-0.6,0.6-0.6c0.3,0,0.6,0.3,0.6,0.6v39h8.5c0.3,0,0.6,0.3,0.6,0.6v5.4
			C1184.9,394.7,1184.6,395,1184.3,395" />
            <path clip-path="url(#SVGID_2_)" fill="#1D1D1B" d="M1171.1,395h-10.5c-0.3,0-0.6-0.3-0.6-0.6V389c0-0.3,0.3-0.6,0.6-0.6h8.5
			v-32.9h-7.3c-0.3,0-0.6-0.3-0.6-0.6v-5.4c0-0.3,0.3-0.6,0.6-0.6h10.7c0.3,0,0.6,0.3,0.6,0.6c0,0.3-0.3,0.6-0.6,0.6h-10.1v4.2h7.3
			c0.3,0,0.6,0.3,0.6,0.6V389c0,0.3-0.3,0.6-0.6,0.6h-8.5v4.2h9.9c0.3,0,0.6,0.3,0.6,0.6C1171.7,394.7,1171.4,395,1171.1,395" />
        </g>
    </g>
    <g id="_x32__sal">
        <g id="_x32__1_">
            <defs>
                <rect id="SVGID_3_" x="1152" y="245.6" width="31" height="53.4" />
            </defs>
            <clipPath id="SVGID_4_">
                <use xlink:href="#SVGID_3_" overflow="visible" />
            </clipPath>
            <path clip-path="url(#SVGID_4_)" fill="#1D1D1B" d="M1159.6,292.7C1159.6,292.7,1159.6,292.7,1159.6,292.7c-0.4,0-0.7-0.3-0.7-0.7
			c0.2-3.4,1.2-4.7,3.9-7.3l13.6-13.4c3.2-3,4.8-7.4,4.8-10.1c0,0,0,0,0,0c0.2-3.7-1.1-7.4-3.7-10.1c-2.5-2.6-5.9-4.1-9.7-4.1
			c-7.3,0-13.2,5.7-13.6,12.8h5.3c0.5-3.5,2.9-6.3,6.5-7.2c0.4-0.1,0.7,0.1,0.8,0.5c0.1,0.4-0.1,0.7-0.5,0.8
			c-3.2,0.8-5.3,3.3-5.5,6.6c0,0.4-0.3,0.6-0.7,0.6h-6.7c-0.4,0-0.7-0.3-0.7-0.7c0-8.2,6.7-14.8,15-14.8c4.1,0,7.9,1.6,10.7,4.5
			c2.8,3,4.3,7,4.1,11.1c0,3-1.8,7.8-5.2,11l-13.6,13.4c-2.6,2.5-3.3,3.4-3.5,6.3C1160.3,292.4,1160,292.7,1159.6,292.7 M1182.3,299
			h-29.6c-0.2,0-0.4-0.1-0.5-0.2c-0.1-0.1-0.2-0.3-0.2-0.5c0.3-11.9,2.5-14.1,5.6-17.2c0.2-0.2,0.5-0.5,0.7-0.7l13.2-13
			c2.5-2.6,3-4.7,3.1-6.5c0.2-3.4-2-6.4-5.2-7.1c-0.4-0.1-0.6-0.4-0.5-0.8c0.1-0.4,0.4-0.6,0.8-0.5c3.9,0.8,6.6,4.5,6.3,8.5
			c-0.1,2-0.6,4.5-3.5,7.4l-13.2,13c-0.2,0.3-0.5,0.5-0.7,0.7c-2.9,2.9-4.8,4.8-5.1,15.6h28.2v-4.9h-18.8c-0.4,0-0.7-0.3-0.7-0.7
			c0-0.4,0.3-0.7,0.7-0.7h19.5c0.4,0,0.7,0.3,0.7,0.7v6.3C1183,298.7,1182.7,299,1182.3,299" />
        </g>
    </g>
    <g id="_x33__sal">
        <g id="_x33_">
            <defs>
                <rect id="SVGID_5_" x="1148.1" y="152" width="31.3" height="54" />
            </defs>
            <clipPath id="SVGID_6_">
                <use xlink:href="#SVGID_5_" overflow="visible" />
            </clipPath>
            <path clip-path="url(#SVGID_6_)" fill="#1D1D1B" d="M1163.8,206c-8.6,0-15.6-7.2-15.6-16c0-0.4,0.3-0.7,0.7-0.7h6.5
			c0.4,0,0.7,0.3,0.7,0.7c0.1,3.6,2.7,6.8,6.3,7.7c0.4,0.1,0.6,0.5,0.5,0.8c-0.1,0.4-0.5,0.6-0.8,0.5c-3.9-1-6.9-4.4-7.3-8.3h-5.2
			c0.4,7.7,6.6,13.9,14.2,13.9c3.9,0,7.5-1.5,10.1-4.1c2.7-2.7,4.2-6.3,4.2-10.2v-0.1c0-4.8-2-8.8-5.4-10.8
			c-0.2-0.1-0.3-0.3-0.3-0.6c0-0.2,0.1-0.5,0.3-0.6c3.5-2.4,5.4-6.5,5.4-11.6l0-0.1c-0.4-7-5.6-12.6-12.6-13.2
			c-0.4,0-0.7-0.4-0.6-0.8c0-0.4,0.4-0.7,0.8-0.6c7.6,0.8,13.4,6.9,13.8,14.6c0,0,0,0,0,0.1l0,0.1c0,5.1-1.8,9.4-5.2,12.1
			c3.3,2.4,5.2,6.5,5.2,11.4v0.1c0,4.2-1.6,8.2-4.6,11.2C1171.9,204.4,1168,206,1163.8,206" />
            <path clip-path="url(#SVGID_6_)" fill="#1D1D1B" d="M1165.3,199.1c-0.3,0-0.6-0.2-0.7-0.6c-0.1-0.4,0.2-0.7,0.6-0.8
			c3.5-0.6,6.3-3.8,6.3-7.3l0-0.1c0,0,0,0,0,0c0.1-2.1-0.6-4.1-2-5.4c-1.4-1.4-3.4-2.1-5.7-2c0,0,0,0,0,0h-2.9
			c-0.4,0-0.7-0.3-0.7-0.7v-6.7c0-0.2,0.1-0.4,0.2-0.5c0.1-0.1,0.3-0.2,0.5-0.2h0l2.9,0c0,0,0,0,0,0c2.3,0.1,4.3-0.6,5.7-1.9
			c1.4-1.4,2.2-3.4,2.2-5.8c0-2.1-0.7-3.8-2.1-5.2c-1.4-1.4-3.5-2.1-5.5-2.1c-4.1,0.2-7.7,3.8-7.8,8c0,0.4-0.3,0.7-0.7,0.7h-6
			c-0.4,0-0.7-0.3-0.7-0.7c0-8.2,5.8-15,13.5-15.8c0.4,0,0.7,0.2,0.8,0.6c0,0.4-0.2,0.7-0.6,0.8c-6.8,0.8-11.9,6.6-12.2,13.7h4.6
			c0.5-4.7,4.4-8.5,9.1-8.7c2.5-0.1,4.8,0.8,6.6,2.4c1.7,1.6,2.6,3.8,2.6,6.2c0,2.8-0.9,5.2-2.6,6.8c-1.7,1.6-4,2.4-6.7,2.3l-2.2,0
			v5.3h2.2c2.6-0.1,5,0.8,6.7,2.4c1.6,1.6,2.5,3.9,2.4,6.4l0,0.1c0,4.3-3.2,8-7.5,8.7C1165.4,199.1,1165.3,199.1,1165.3,199.1" />
        </g>
    </g>
    <g id="_x34__sal">
        <g>
            <defs>
                <rect id="SVGID_7_" x="1139.3" y="55" width="35.5" height="55" />
            </defs>
            <clipPath id="SVGID_8_">
                <use xlink:href="#SVGID_7_" overflow="visible" />
            </clipPath>
            <path clip-path="url(#SVGID_8_)" fill="#1D1D1B" d="M1162.8,92.2h-15.1c-0.4,0-0.7-0.3-0.7-0.7c0-0.4,0.3-0.7,0.7-0.7h14.4V70.4
			l-12.1,18.2c-0.2,0.3-0.7,0.4-1,0.2c-0.3-0.2-0.4-0.7-0.2-1l13.4-20.2c0.2-0.3,0.5-0.4,0.8-0.3c0.3,0.1,0.5,0.4,0.5,0.7v23.4
			C1163.5,91.9,1163.2,92.2,1162.8,92.2 M1162.8,98.1H1140c-0.4,0-0.7-0.3-0.7-0.7v-6c0-0.1,0-0.3,0.1-0.4l23.3-35.7
			c0.1-0.2,0.4-0.3,0.6-0.3h2.4c0.4,0,0.7,0.3,0.7,0.7c0,0.4-0.3,0.7-0.7,0.7h-2l-23,35.2v5h22.1c0.4,0,0.7,0.3,0.7,0.7
			C1163.5,97.7,1163.2,98.1,1162.8,98.1 M1169.1,110h-6.3c-0.4,0-0.7-0.3-0.7-0.7v-8.7c0-0.4,0.3-0.7,0.7-0.7c0.4,0,0.7,0.3,0.7,0.7
			v8h4.9V97.3c0-0.4,0.3-0.7,0.7-0.7h4.2v-4.4h-4.2c-0.4,0-0.7-0.3-0.7-0.7V55.7c0-0.4,0.3-0.7,0.7-0.7c0.4,0,0.7,0.3,0.7,0.7v35.1
			h4.2c0.4,0,0.7,0.3,0.7,0.7v5.8c0,0.4-0.3,0.7-0.7,0.7h-4.2v11.2C1169.8,109.7,1169.5,110,1169.1,110" />
        </g>
    </g>
    <g id="Instagram">
    </g>
    <g id="facebook">
    </g>
    <g id="H">
    </g>
    <g id="U">
    </g>
    <g id="S">
    </g>
    <g id="E">
    </g>
    <g id="T">
    </g>
    <g id="_x2D_">
    </g>
    <g id="K">
    </g>
    <g id="B">
    </g>
    <g id="H_2_">
    </g>
    <g id="Pil">
    </g>
    <g id="Søg">
    </g>
    <g id="Layer_30">
    </g>
</svg>
