<?xml version="1.0" encoding="utf-8"?>
<!-- Generator: Adobe Illustrator 22.1.0, SVG Export Plug-In . SVG Version: 6.00 Build 0)  -->
<svg version="1.1" id="Layer_1" xmlns="http://www.w3.org/2000/svg" xmlns:xlink="http://www.w3.org/1999/xlink" x="0px" y="0px" viewBox="0 0 1280 800" enable-background="new 0 0 1280 800" xml:space="preserve">
    <g id="HUSET">
    </g>

    <a href="http://www.echoecho.com/htmllinks08.htm">
        <g id="Kaelderen">
            <polygon id="plade-kaelder" fill="#0F1548" stroke="#000000" stroke-width="0.5" stroke-miterlimit="10" points="117.5,659.5
		318.5,545.5 474.5,545.5 399.5,599.5 572.5,602.5 504.5,659.5 	" />
            <g id="Kælderen_1_">
                <rect x="117.5" y="659.5" fill="#D3EBF1" stroke="#000000" stroke-width="0.5" stroke-miterlimit="10" width="387.5" height="8" />
                <polygon fill="#D3EBF1" stroke="#000000" stroke-width="0.5" stroke-miterlimit="10" points="504.5,667.5 571.5,609.5
			571.5,602.5 504.5,659.5 		" />
                <polygon fill="#D3EBF1" stroke="#000000" stroke-width="0.5" stroke-miterlimit="10" points="399.5,599.5 474.5,545.5
			474.5,555.5 414.4,599.8 		" />
            </g>
        </g>
    </a>
    <g id="Stuen">
        <g id="Stuen_1_">

            <rect x="117" y="582.2" fill="#D3EBF1" stroke="#000000" stroke-width="0.5" stroke-miterlimit="10" width="228.4" height="10.8" />
            <polygon fill="#D3EBF1" stroke="#000000" stroke-width="0.5" stroke-miterlimit="10" points="344.8,582.8 449.4,514 449.4,522.7
			344.8,593 		" />
        </g>
        <polygon id="plade-stuen" fill="#D3EBF1" stroke="#000000" stroke-width="0.5" stroke-miterlimit="10" points="117,582.2
		345.4,582.2 450,513.7 238.4,513.7 	" />
    </g>
    <g id="Salon_K">
        <polygon id="plade-salonk" fill="#0F1548" stroke="#000000" stroke-width="0.5" stroke-miterlimit="10" points="117.5,505.5
		318.5,391.5 474.5,391.5 399.5,445.5 572.5,448.5 504.5,505.5 	" />
        <g id="SalonK">
            <rect x="117.5" y="505.5" fill="#D3EBF1" stroke="#000000" stroke-width="0.5" stroke-miterlimit="10" width="387.5" height="8" />
            <polygon fill="#D3EBF1" stroke="#000000" stroke-width="0.5" stroke-miterlimit="10" points="504.5,513.5 571.5,455.5
			571.5,448.5 504.5,505.5 		" />
            <polygon fill="#D3EBF1" stroke="#000000" stroke-width="0.5" stroke-miterlimit="10" points="399.5,445.5 474.5,391.5
			474.5,401.5 414.4,445.8 		" />
        </g>
    </g>
    <g id="Teaterhuset">
        <polygon id="plade-teater" fill="#D3EBF1" stroke="#000000" stroke-width="0.5" stroke-miterlimit="10" points="120,428 310,428
		397,371 221,371 	" />
        <g id="Teaterhuset_1_">
            <rect x="120" y="428" fill="#D3EBF1" stroke="#000000" stroke-width="0.5" stroke-miterlimit="10" width="190" height="9" />
            <polygon fill="#D3EBF1" stroke="#000000" stroke-width="0.5" stroke-miterlimit="10" points="309.5,428.5 396.5,371.3
			396.5,378.5 309.5,437 		" />
        </g>
    </g>
    <g id="Gaardhaven">
        <polygon id="plade-gaardhaven" fill="#D3EBF1" stroke="#000000" stroke-width="0.5" stroke-miterlimit="10" points="468.5,580.5
		549.5,522.5 786.5,522.5 733.5,580.5 	" />
        <g id="Gårdhaven_1_">
            <rect x="469" y="580" fill="#D3EBF1" stroke="#000000" stroke-width="0.5" stroke-miterlimit="10" width="264" height="8" />
            <polygon fill="#D3EBF1" stroke="#000000" stroke-width="0.5" stroke-miterlimit="10" points="732.5,588.5 786.5,529.5
			786.5,522.5 732.5,580.5 		" />
        </g>
    </g>
    <g id="Indgang">
        <polygon id="plade-indgang" fill="#D3EBF1" stroke="#000000" stroke-width="0.5" stroke-miterlimit="10" points="703.5,659.5
		825.5,522.5 852.5,522.5 790.5,601.5 1008.5,601.5 957.5,659.5 	" />
        <g id="Indgangen">
            <rect x="704" y="659" fill="#D3EBF1" stroke="#000000" stroke-width="0.5" stroke-miterlimit="10" width="253.6" height="8" />
            <polygon fill="#D3EBF1" stroke="#000000" stroke-width="0.5" stroke-miterlimit="10" points="957.1,667.5 1009,608.5 1009,601.5
			957.1,659.5 		" />
            <polygon fill="#D3EBF1" stroke="#000000" stroke-width="0.5" stroke-miterlimit="10" points="790.6,601.5 853,523 853,532
			799,601.5 		" />
        </g>
    </g>
    <g id="Bastard">
        <polygon id="plade-bastard" fill="#D3EBF1" stroke="#000000" stroke-width="0.5" stroke-miterlimit="10" points="736.5,498.5
		804.5,441.5 1094.5,442.5 1055.5,501.5 	" />
        <g id="Bastard_1_">
            <rect x="737" y="498" fill="#D3EBF1" stroke="#000000" stroke-width="0.5" stroke-miterlimit="10" width="318" height="8" />
            <polygon fill="#D3EBF1" stroke="#000000" stroke-width="0.5" stroke-miterlimit="10" points="1055.5,497.5 1094.5,442.5
			1094.5,449.5 1055.5,505.5 		" />
            <polygon fill="#D3EBF1" stroke="#000000" stroke-width="0.5" stroke-miterlimit="10" points="971.5,478.5 997.5,453.5
			1056.5,453.5 1037.5,481.5 968.5,481.5 		" />
            <polyline fill="none" stroke="#000000" stroke-width="0.5" stroke-miterlimit="10" points="997.5,454 997.5,463.5 1005.5,463.5
			1005.5,473.5 1015.5,473.5 1015.5,481.5 		" />
            <line fill="none" stroke="#000000" stroke-width="0.5" stroke-miterlimit="10" x1="1005.5" y1="473.5" x2="996.5" y2="481.5" />
            <line fill="none" stroke="#000000" stroke-width="0.5" stroke-miterlimit="10" x1="997.5" y1="463.5" x2="977.5" y2="481.5" />
            <line fill="none" stroke="#000000" stroke-width="0.5" stroke-miterlimit="10" x1="1015.5" y1="473.5" x2="1006.5" y2="481.5" />
            <line fill="none" stroke="#000000" stroke-width="0.5" stroke-miterlimit="10" x1="1005.3" y1="463.8" x2="987.5" y2="481.5" />
        </g>
    </g>
    <g id="Stardust">
        <polygon id="plade-star" fill="#0F1548" points="667.5,409.9 750.4,340.4 1104,341.6 1056.4,413.5 	" />
        <g id="Stardust_1_">

            <rect x="668.1" y="409.2" fill="#D3EBF1" stroke="#000000" stroke-width="0.5" stroke-miterlimit="10" width="387.8" height="9.8" />
            <polygon fill="#D3EBF1" stroke="#000000" stroke-width="0.5" stroke-miterlimit="10" points="1056.4,408.6 1104,341.6 1104,350.1
			1056.4,418.4 		" />
            <polygon fill="#D3EBF1" stroke="#000000" stroke-width="0.5" stroke-miterlimit="10" points="954,385.5 985.7,355 1057.7,355
			1034.5,389.1 950.4,389.1 		" />
            <polyline fill="#D3EBF1" stroke="#000000" stroke-width="0.5" stroke-miterlimit="10" points="985.7,355.6 985.7,367.2
			995.5,367.2 995.5,379.4 1007.7,379.4 1007.7,389.1 		" />
            <line fill="none" stroke="#000000" stroke-width="0.5" stroke-miterlimit="10" x1="995.5" y1="379.4" x2="984.5" y2="389.1" />
            <line fill="none" stroke="#000000" stroke-width="0.5" stroke-miterlimit="10" x1="985.7" y1="367.2" x2="961.3" y2="389.1" />
            <line fill="none" stroke="#000000" stroke-width="0.5" stroke-miterlimit="10" x1="1007.7" y1="379.4" x2="996.7" y2="389.1" />
            <line fill="none" stroke="#000000" stroke-width="0.5" stroke-miterlimit="10" x1="995.3" y1="367.5" x2="973.5" y2="389.1" />
        </g>
    </g>
    <g id="Biografen">
        <polygon id="plade-bio" fill="#0F1548" points="683.5,309.9 766.4,240.4 1120,241.6 1072.4,313.5 	" />
        <g id="Biografen_1_">

            <rect x="684.1" y="309.2" fill="#D3EBF1" stroke="#000000" stroke-width="0.5" stroke-miterlimit="10" width="387.8" height="9.8" />
            <polygon fill="#D3EBF1" stroke="#000000" stroke-width="0.5" stroke-miterlimit="10" points="1072.4,308.6 1120,241.6 1120,250.1
			1072.4,318.4 		" />
            <polygon fill="#D3EBF1" stroke="#000000" stroke-width="0.5" stroke-miterlimit="10" points="970,285.5 1001.7,255 1073.7,255
			1050.5,289.1 966.4,289.1 		" />
            <polyline fill="none" stroke="#000000" stroke-width="0.5" stroke-miterlimit="10" points="1001.7,255.6 1001.7,267.2
			1011.5,267.2 1011.5,279.4 1023.7,279.4 1023.7,289.1 		" />
            <line fill="none" stroke="#000000" stroke-width="0.5" stroke-miterlimit="10" x1="1011.5" y1="279.4" x2="1000.5" y2="289.1" />
            <line fill="none" stroke="#000000" stroke-width="0.5" stroke-miterlimit="10" x1="1001.7" y1="267.2" x2="977.3" y2="289.1" />
            <line fill="none" stroke="#000000" stroke-width="0.5" stroke-miterlimit="10" x1="1023.7" y1="279.4" x2="1012.7" y2="289.1" />
            <line fill="none" stroke="#000000" stroke-width="0.5" stroke-miterlimit="10" x1="1011.3" y1="267.5" x2="989.5" y2="289.1" />
        </g>
    </g>
    <g id="Musikcafeen">
        <polygon id="plade-musik" fill="#0F1548" points="677.5,216.9 760.4,147.4 1114,148.6 1066.4,220.5 	" />
        <g id="Musikcafeen_1_">

            <rect x="678.1" y="216.2" fill="#D3EBF1" stroke="#000000" stroke-width="0.5" stroke-miterlimit="10" width="387.8" height="9.8" />
            <polygon fill="#D3EBF1" stroke="#000000" stroke-width="0.5" stroke-miterlimit="10" points="1066.4,215.6 1114,148.6 1114,157.1
			1066.4,225.4 		" />
            <polygon fill="#D3EBF1" stroke="#000000" stroke-width="0.5" stroke-miterlimit="10" points="964,192.5 995.7,162 1067.7,162
			1044.5,196.1 960.4,196.1 		" />
            <polyline fill="none" stroke="#000000" stroke-width="0.5" stroke-miterlimit="10" points="995.7,162.6 995.7,174.2 1005.5,174.2
			1005.5,186.4 1017.7,186.4 1017.7,196.1 		" />
            <line fill="none" stroke="#000000" stroke-width="0.5" stroke-miterlimit="10" x1="1005.5" y1="186.4" x2="994.5" y2="196.1" />
            <line fill="none" stroke="#000000" stroke-width="0.5" stroke-miterlimit="10" x1="995.7" y1="174.2" x2="971.3" y2="196.1" />
            <line fill="none" stroke="#000000" stroke-width="0.5" stroke-miterlimit="10" x1="1017.7" y1="186.4" x2="1006.7" y2="196.1" />
            <line fill="none" stroke="#000000" stroke-width="0.5" stroke-miterlimit="10" x1="1005.3" y1="174.5" x2="983.5" y2="196.1" />
        </g>
    </g>
    <g id="Xenon">
        <polygon id="plade-xenon" fill="#0F1548" points="677.5,122.9 760.4,53.4 1114,54.6 1066.4,126.5 	" />
        <g id="Xenon_1_">

            <rect x="678.1" y="122.2" fill="#D3EBF1" stroke="#000000" stroke-width="0.5" stroke-miterlimit="10" width="387.8" height="9.8" />
            <polygon fill="#D3EBF1" stroke="#000000" stroke-width="0.5" stroke-miterlimit="10" points="1066.4,121.6 1114,54.6 1114,63.1
			1066.4,131.4 		" />
            <polygon fill="#D3EBF1" stroke="#000000" stroke-width="0.5" stroke-miterlimit="10" points="964,98.5 995.7,68 1067.7,68
			1044.5,102.1 960.4,102.1 		" />
            <polyline fill="none" stroke="#000000" stroke-width="0.5" stroke-miterlimit="10" points="995.7,68.6 995.7,80.2 1005.5,80.2
			1005.5,92.4 1017.7,92.4 1017.7,102.1 		" />
            <line fill="none" stroke="#000000" stroke-width="0.5" stroke-miterlimit="10" x1="1005.5" y1="92.4" x2="994.5" y2="102.1" />
            <line fill="none" stroke="#000000" stroke-width="0.5" stroke-miterlimit="10" x1="995.7" y1="80.2" x2="971.3" y2="102.1" />
            <line fill="none" stroke="#000000" stroke-width="0.5" stroke-miterlimit="10" x1="1017.7" y1="92.4" x2="1006.7" y2="102.1" />
            <line fill="none" stroke="#000000" stroke-width="0.5" stroke-miterlimit="10" x1="1005.3" y1="80.5" x2="983.5" y2="102.1" />
        </g>
    </g>
    <g id="_x31__sal">
        <g id="_x31_">
            <g>
                <defs>
                    <rect id="SVGID_1_" x="1160" y="348.8" width="24.9" height="46.2" />
                </defs>
                <clipPath id="SVGID_2_">
                    <use xlink:href="#SVGID_1_" overflow="visible" />
                </clipPath>
                <path clip-path="url(#SVGID_2_)" fill="#1D1D1B" d="M1184.3,395h-10.5c-0.3,0-0.6-0.3-0.6-0.6c0-0.3,0.3-0.6,0.6-0.6h9.9v-4.2
				h-8.5c-0.3,0-0.6-0.3-0.6-0.6v-39.5c0-0.3,0.3-0.6,0.6-0.6c0.3,0,0.6,0.3,0.6,0.6v39h8.5c0.3,0,0.6,0.3,0.6,0.6v5.4
				C1184.9,394.7,1184.6,395,1184.3,395" />
            </g>
            <g>
                <defs>
                    <rect id="SVGID_3_" x="1160" y="348.8" width="24.9" height="46.2" />
                </defs>
                <clipPath id="SVGID_4_">
                    <use xlink:href="#SVGID_3_" overflow="visible" />
                </clipPath>
                <path clip-path="url(#SVGID_4_)" fill="#1D1D1B" d="M1171.1,395h-10.5c-0.3,0-0.6-0.3-0.6-0.6V389c0-0.3,0.3-0.6,0.6-0.6h8.5
				v-32.9h-7.3c-0.3,0-0.6-0.3-0.6-0.6v-5.4c0-0.3,0.3-0.6,0.6-0.6h10.7c0.3,0,0.6,0.3,0.6,0.6c0,0.3-0.3,0.6-0.6,0.6h-10.1v4.2h7.3
				c0.3,0,0.6,0.3,0.6,0.6V389c0,0.3-0.3,0.6-0.6,0.6h-8.5v4.2h9.9c0.3,0,0.6,0.3,0.6,0.6C1171.7,394.7,1171.4,395,1171.1,395" />
            </g>
        </g>
    </g>
    <g id="_x32__sal">
        <g id="_x32__1_">
            <g>
                <defs>
                    <rect id="SVGID_5_" x="1152" y="245.6" width="31" height="53.4" />
                </defs>
                <clipPath id="SVGID_6_">
                    <use xlink:href="#SVGID_5_" overflow="visible" />
                </clipPath>
                <path clip-path="url(#SVGID_6_)" fill="#1D1D1B" d="M1159.6,292.7L1159.6,292.7c-0.4,0-0.7-0.3-0.7-0.7c0.2-3.4,1.2-4.7,3.9-7.3
				l13.6-13.4c3.2-3,4.8-7.4,4.8-10.1l0,0c0.2-3.7-1.1-7.4-3.7-10.1c-2.5-2.6-5.9-4.1-9.7-4.1c-7.3,0-13.2,5.7-13.6,12.8h5.3
				c0.5-3.5,2.9-6.3,6.5-7.2c0.4-0.1,0.7,0.1,0.8,0.5c0.1,0.4-0.1,0.7-0.5,0.8c-3.2,0.8-5.3,3.3-5.5,6.6c0,0.4-0.3,0.6-0.7,0.6h-6.7
				c-0.4,0-0.7-0.3-0.7-0.7c0-8.2,6.7-14.8,15-14.8c4.1,0,7.9,1.6,10.7,4.5c2.8,3,4.3,7,4.1,11.1c0,3-1.8,7.8-5.2,11l-13.6,13.4
				c-2.6,2.5-3.3,3.4-3.5,6.3C1160.3,292.4,1160,292.7,1159.6,292.7 M1182.3,299h-29.6c-0.2,0-0.4-0.1-0.5-0.2s-0.2-0.3-0.2-0.5
				c0.3-11.9,2.5-14.1,5.6-17.2c0.2-0.2,0.5-0.5,0.7-0.7l13.2-13c2.5-2.6,3-4.7,3.1-6.5c0.2-3.4-2-6.4-5.2-7.1
				c-0.4-0.1-0.6-0.4-0.5-0.8c0.1-0.4,0.4-0.6,0.8-0.5c3.9,0.8,6.6,4.5,6.3,8.5c-0.1,2-0.6,4.5-3.5,7.4l-13.2,13
				c-0.2,0.3-0.5,0.5-0.7,0.7c-2.9,2.9-4.8,4.8-5.1,15.6h28.2v-4.9h-18.8c-0.4,0-0.7-0.3-0.7-0.7c0-0.4,0.3-0.7,0.7-0.7h19.5
				c0.4,0,0.7,0.3,0.7,0.7v6.3C1183,298.7,1182.7,299,1182.3,299" />
            </g>
        </g>
    </g>
    <g id="_x33__sal">
        <g id="_x33_">
            <g>
                <defs>
                    <rect id="SVGID_7_" x="1148.1" y="152" width="31.3" height="54" />
                </defs>
                <clipPath id="SVGID_8_">
                    <use xlink:href="#SVGID_7_" overflow="visible" />
                </clipPath>
                <path clip-path="url(#SVGID_8_)" fill="#1D1D1B" d="M1163.8,206c-8.6,0-15.6-7.2-15.6-16c0-0.4,0.3-0.7,0.7-0.7h6.5
				c0.4,0,0.7,0.3,0.7,0.7c0.1,3.6,2.7,6.8,6.3,7.7c0.4,0.1,0.6,0.5,0.5,0.8c-0.1,0.4-0.5,0.6-0.8,0.5c-3.9-1-6.9-4.4-7.3-8.3h-5.2
				c0.4,7.7,6.6,13.9,14.2,13.9c3.9,0,7.5-1.5,10.1-4.1c2.7-2.7,4.2-6.3,4.2-10.2v-0.1c0-4.8-2-8.8-5.4-10.8
				c-0.2-0.1-0.3-0.3-0.3-0.6c0-0.2,0.1-0.5,0.3-0.6c3.5-2.4,5.4-6.5,5.4-11.6v-0.1c-0.4-7-5.6-12.6-12.6-13.2
				c-0.4,0-0.7-0.4-0.6-0.8c0-0.4,0.4-0.7,0.8-0.6c7.6,0.8,13.4,6.9,13.8,14.6c0,0,0,0,0,0.1v0.1c0,5.1-1.8,9.4-5.2,12.1
				c3.3,2.4,5.2,6.5,5.2,11.4v0.1c0,4.2-1.6,8.2-4.6,11.2C1171.9,204.4,1168,206,1163.8,206" />
            </g>
            <g>
                <defs>
                    <rect id="SVGID_9_" x="1148.1" y="152" width="31.3" height="54" />
                </defs>
                <clipPath id="SVGID_10_">
                    <use xlink:href="#SVGID_9_" overflow="visible" />
                </clipPath>
                <path clip-path="url(#SVGID_10_)" fill="#1D1D1B" d="M1165.3,199.1c-0.3,0-0.6-0.2-0.7-0.6c-0.1-0.4,0.2-0.7,0.6-0.8
				c3.5-0.6,6.3-3.8,6.3-7.3v-0.1l0,0c0.1-2.1-0.6-4.1-2-5.4c-1.4-1.4-3.4-2.1-5.7-2l0,0h-2.9c-0.4,0-0.7-0.3-0.7-0.7v-6.7
				c0-0.2,0.1-0.4,0.2-0.5s0.3-0.2,0.5-0.2l0,0h2.9l0,0c2.3,0.1,4.3-0.6,5.7-1.9c1.4-1.4,2.2-3.4,2.2-5.8c0-2.1-0.7-3.8-2.1-5.2
				s-3.5-2.1-5.5-2.1c-4.1,0.2-7.7,3.8-7.8,8c0,0.4-0.3,0.7-0.7,0.7h-6c-0.4,0-0.7-0.3-0.7-0.7c0-8.2,5.8-15,13.5-15.8
				c0.4,0,0.7,0.2,0.8,0.6c0,0.4-0.2,0.7-0.6,0.8c-6.8,0.8-11.9,6.6-12.2,13.7h4.6c0.5-4.7,4.4-8.5,9.1-8.7c2.5-0.1,4.8,0.8,6.6,2.4
				c1.7,1.6,2.6,3.8,2.6,6.2c0,2.8-0.9,5.2-2.6,6.8s-4,2.4-6.7,2.3h-2.2v5.3h2.2c2.6-0.1,5,0.8,6.7,2.4c1.6,1.6,2.5,3.9,2.4,6.4v0.1
				c0,4.3-3.2,8-7.5,8.7C1165.4,199.1,1165.3,199.1,1165.3,199.1" />
            </g>
        </g>
    </g>
    <g id="_x34__sal">
        <g>
            <g>
                <defs>
                    <rect id="SVGID_11_" x="1139.3" y="55" width="35.5" height="55" />
                </defs>
                <clipPath id="SVGID_12_">
                    <use xlink:href="#SVGID_11_" overflow="visible" />
                </clipPath>
                <path clip-path="url(#SVGID_12_)" fill="#1D1D1B" d="M1162.8,92.2h-15.1c-0.4,0-0.7-0.3-0.7-0.7c0-0.4,0.3-0.7,0.7-0.7h14.4V70.4
				L1150,88.6c-0.2,0.3-0.7,0.4-1,0.2c-0.3-0.2-0.4-0.7-0.2-1l13.4-20.2c0.2-0.3,0.5-0.4,0.8-0.3s0.5,0.4,0.5,0.7v23.4
				C1163.5,91.9,1163.2,92.2,1162.8,92.2 M1162.8,98.1H1140c-0.4,0-0.7-0.3-0.7-0.7v-6c0-0.1,0-0.3,0.1-0.4l23.3-35.7
				c0.1-0.2,0.4-0.3,0.6-0.3h2.4c0.4,0,0.7,0.3,0.7,0.7s-0.3,0.7-0.7,0.7h-2l-23,35.2v5h22.1c0.4,0,0.7,0.3,0.7,0.7
				S1163.2,98.1,1162.8,98.1 M1169.1,110h-6.3c-0.4,0-0.7-0.3-0.7-0.7v-8.7c0-0.4,0.3-0.7,0.7-0.7c0.4,0,0.7,0.3,0.7,0.7v8h4.9V97.3
				c0-0.4,0.3-0.7,0.7-0.7h4.2v-4.4h-4.2c-0.4,0-0.7-0.3-0.7-0.7V55.7c0-0.4,0.3-0.7,0.7-0.7c0.4,0,0.7,0.3,0.7,0.7v35.1h4.2
				c0.4,0,0.7,0.3,0.7,0.7v5.8c0,0.4-0.3,0.7-0.7,0.7h-4.2v11.2C1169.8,109.7,1169.5,110,1169.1,110" />
            </g>
        </g>
    </g>
    <g id="Instagram">
        <g id="instagram">
            <path fill="#494949" d="M1376.4,71.6c0,0-2.6-26.6,24.4-26.6s52.1,0,52.1,0s18.4-0.8,18.4,26.6h-31.9c0,0-16.9-10.9-30.8,0H1376.4
			z" />
            <path fill="#494949" d="M1402.3,77.6h-25.9v43.1c0,0,0,18.8,21.4,18.8s55.9,0,55.9,0s17.6-4.5,17.6-20.6s0-41.3,0-41.3h-25.9
			c0,0,10.1,18.8-4.1,33s-34.9,2.6-38.6-4.1S1397,92.3,1402.3,77.6z" />
            <circle fill="#494949" cx="1423.8" cy="92.1" r="19.7" />
            <path fill="#FFFFFF" d="M1454.8,66h-2.8c-2.9,0-5.2-2.4-5.2-5.2V58c0-2.9,2.4-5.2,5.2-5.2h2.8c2.9,0,5.2,2.4,5.2,5.2v2.8
			C1460,63.6,1457.7,66,1454.8,66z" />
        </g>
    </g>
    <g id="facebook">
        <path id="facebook_1_" fill="#494949" d="M1545.7,139.9v-37h-10.4V86.7h10.4V76c0-9.9,7.5-18.2,17.3-19.1c1.4-0.1,3-0.2,4.7-0.2
		h11.6v13.9c0,0-8.8-0.8-11.6,0c-4,1.2-3.5,2.3-3.5,16.2h15V103h-15v37c0,0,27.8,4.6,27.8-20.8c0,0,0-42.8,0-59
		c0-11.6-5.8-15-18.5-15c-10.4,0-59,0-59,0s-17.4-1.2-17.4,17.4c0,18.8,0,62.5,0,62.5s1.2,15.6,15.6,15.6S1545.7,139.9,1545.7,139.9
		z" />
    </g>
    <g id="H">
        <g id="h">
            <g id="H_1_">
                <g>
                    <defs>
                        <rect id="SVGID_13_" x="1369" y="194.5" width="80" height="148.2" />
                    </defs>
                    <clipPath id="SVGID_14_">
                        <use xlink:href="#SVGID_13_" overflow="visible" />
                    </clipPath>
                    <path clip-path="url(#SVGID_14_)" fill="#1D1D1B" d="M1447.1,264.6c-1.1,0-1.9-0.9-1.9-1.9v-64.3h-13.5v60.4
					c0,1.1-0.9,1.9-1.9,1.9h-41.4c-1.1,0-1.9-0.9-1.9-1.9v-60.4H1373v64.3c0,1.1-0.9,1.9-1.9,1.9s-1.9-0.9-1.9-1.9v-66.2
					c0-1.1,0.9-1.9,1.9-1.9h17.4c1.1,0,1.9,0.9,1.9,1.9v60.4h37.6v-60.4c0-1.1,0.9-1.9,1.9-1.9h17.4c1.1,0,1.9,0.9,1.9,1.9v66.2
					C1449,263.7,1448.1,264.6,1447.1,264.6" />
                </g>
                <g>
                    <defs>
                        <rect id="SVGID_15_" x="1369" y="194.5" width="80" height="148.2" />
                    </defs>
                    <clipPath id="SVGID_16_">
                        <use xlink:href="#SVGID_15_" overflow="visible" />
                    </clipPath>
                    <path clip-path="url(#SVGID_16_)" fill="#1D1D1B" d="M1447.1,342.7h-17.4c-1.1,0-1.9-0.9-1.9-1.9V278h-37.6v62.8
					c0,1.1-0.9,1.9-1.9,1.9h-17.4c-1.1,0-1.9-0.9-1.9-1.9v-69.5c0-1.1,0.9-1.9,1.9-1.9s1.9,0.9,1.9,1.9v67.5h13.5V276
					c0-1.1,0.9-1.9,1.9-1.9h41.4c1.1,0,1.9,0.9,1.9,1.9v62.8h13.5v-67.5c0-1.1,0.9-1.9,1.9-1.9s1.9,0.9,1.9,1.9v69.5
					C1449,341.9,1448.1,342.7,1447.1,342.7" />
                </g>
            </g>
        </g>
    </g>
    <g id="U">
        <g id="U_2_">
            <g>
                <g>
                    <defs>
                        <rect id="SVGID_17_" x="1471" y="194.5" width="80" height="148.8" />
                    </defs>
                    <clipPath id="SVGID_18_">
                        <use xlink:href="#SVGID_17_" overflow="visible" />
                    </clipPath>
                    <path clip-path="url(#SVGID_18_)" fill="#1D1D1B" d="M1510.6,343.3c-19.1,0-39.6-12.6-39.6-40.4v-65.3c0-1.1,0.9-1.9,1.9-1.9
					s1.9,0.9,1.9,1.9V303c0,17.6,11.2,36.5,35.7,36.5c9.6,0,18.5-3.3,25.1-9.2c7.5-6.6,11.4-16.1,11.4-27.3v-65.3
					c0-1.1,0.9-1.9,1.9-1.9s1.9,0.9,1.9,1.9V303C1551,329.5,1530.7,343.3,1510.6,343.3" />
                </g>
                <g>
                    <defs>
                        <rect id="SVGID_19_" x="1471" y="194.5" width="80" height="148.8" />
                    </defs>
                    <clipPath id="SVGID_20_">
                        <use xlink:href="#SVGID_19_" overflow="visible" />
                    </clipPath>
                    <path clip-path="url(#SVGID_20_)" fill="#1D1D1B" d="M1506.7,326.2c-0.1,0-0.2,0-0.4,0c-10.9-2.2-18-11.3-18-23.2V198.4h-13.5
					v30.7c0,1.1-0.9,1.9-1.9,1.9s-1.9-0.9-1.9-1.9v-32.6c0-1.1,0.9-1.9,1.9-1.9h17.4c1.1,0,1.9,0.9,1.9,1.9V303
					c0,12.1,7.7,18,14.9,19.4c1,0.2,1.7,1.2,1.5,2.3C1508.4,325.5,1507.6,326.2,1506.7,326.2" />
                </g>
                <g>
                    <defs>
                        <rect id="SVGID_21_" x="1471" y="194.5" width="80" height="148.8" />
                    </defs>
                    <clipPath id="SVGID_22_">
                        <use xlink:href="#SVGID_21_" overflow="visible" />
                    </clipPath>
                    <path clip-path="url(#SVGID_22_)" fill="#1D1D1B" d="M1515.3,326.2c-0.9,0-1.7-0.6-1.9-1.6c-0.2-1,0.5-2.1,1.5-2.3
					c7.2-1.4,14.9-7.3,14.9-19.4V196.4c0-1.1,0.9-1.9,1.9-1.9h17.4c1.1,0,1.9,0.9,1.9,1.9V229c0,1.1-0.9,1.9-1.9,1.9
					s-1.9-0.9-1.9-1.9v-30.7h-13.5V303c0,11.9-7.1,21-18,23.2C1515.5,326.2,1515.4,326.2,1515.3,326.2" />
                </g>
            </g>
        </g>
    </g>
    <g id="S">
        <g id="S_1_">
            <g>
                <g>
                    <defs>
                        <rect id="SVGID_23_" x="1573" y="194.5" width="85.4" height="151.5" />
                    </defs>
                    <clipPath id="SVGID_24_">
                        <use xlink:href="#SVGID_23_" overflow="visible" />
                    </clipPath>
                    <path clip-path="url(#SVGID_24_)" fill="#1D1D1B" d="M1612.9,279.7c-0.3,0-0.6-0.1-0.9-0.2c-34-19.2-37.6-30.1-38.9-42.4V237
					c-0.6-11.1,3.3-21.7,10.9-29.7c7.8-8.2,18.5-12.7,30.3-12.7c22.7,0,41.1,18.6,41.1,41.4c0,1.1-0.9,1.9-1.9,1.9h-17.7
					c-1,0-1.9-0.8-1.9-1.9c-0.4-11.4-8.6-19.6-19.6-19.6c-5.8,0-11.2,2.3-15,6.3c-3.3,3.6-5,8.2-4.6,13.1
					c0.4,8.3,7.6,13.1,19.2,20.3c0.9,0.6,1.2,1.7,0.6,2.6s-1.7,1.2-2.6,0.6c-11-6.8-20.5-12.7-21.1-23.4c-0.4-5.9,1.6-11.6,5.6-16
					c4.5-4.8,10.9-7.5,17.8-7.5c12.5,0,22,8.9,23.3,21.5h13.9c-1-19.8-17.3-35.6-37.2-35.6c-10.7,0-20.4,4.1-27.5,11.5
					c-6.9,7.3-10.4,16.8-9.9,26.8c1.1,11.2,4.6,21.2,36.9,39.4c0.9,0.5,1.3,1.7,0.7,2.6C1614.2,279.4,1613.5,279.7,1612.9,279.7" />
                </g>
                <g>
                    <defs>
                        <rect id="SVGID_25_" x="1573" y="194.5" width="85.4" height="151.5" />
                    </defs>
                    <clipPath id="SVGID_26_">
                        <use xlink:href="#SVGID_25_" overflow="visible" />
                    </clipPath>
                    <path clip-path="url(#SVGID_26_)" fill="#1D1D1B" d="M1616.5,346c-23.1,0-41.8-19.1-41.8-42.5c0-1.1,0.9-1.9,1.9-1.9h17.4
					c1,0,1.9,0.8,1.9,1.9c0.3,11,9.8,20.5,20.6,20.9c5.7,0.2,11.1-2,14.9-6.1c3.7-3.9,5.5-9.1,5-14.6c-0.8-8.4-7-13.1-17.3-19.7
					c-0.9-0.6-1.1-1.8-0.6-2.7c0.6-0.9,1.8-1.1,2.7-0.6c9.3,6,18,11.7,19,22.6c0.6,6.6-1.5,12.8-6,17.6c-4.5,4.8-11,7.5-17.9,7.3
					c-12.2-0.4-22.9-10.6-24.2-22.7h-13.6c1,20.4,17.6,36.8,37.9,36.8c10.8,0,20.7-4.2,27.8-11.7c7.1-7.5,10.7-17.4,10.2-27.8
					c-1.1-11.2-4.6-21.8-35.3-39c-0.9-0.5-1.3-1.7-0.7-2.6c0.5-0.9,1.7-1.3,2.6-0.7c29.3,16.4,35.8,27.8,37.2,42v0.1
					c0.6,11.3-3.5,22.5-11.2,30.7C1639.3,341.4,1628.4,346,1616.5,346" />
                </g>
            </g>
        </g>
    </g>
    <g id="E">
        <g id="E_2_">
            <g>
                <g>
                    <defs>
                        <rect id="SVGID_27_" x="1678" y="194.5" width="80" height="148.2" />
                    </defs>
                    <clipPath id="SVGID_28_">
                        <use xlink:href="#SVGID_27_" overflow="visible" />
                    </clipPath>
                    <path clip-path="url(#SVGID_28_)" fill="#1D1D1B" d="M1756.1,342.7H1680c-1.1,0-1.9-0.9-1.9-1.9V272c0-1.1,0.9-1.9,1.9-1.9
					s1.9,0.9,1.9,1.9v66.9h72.3v-13.5h-56.9c-1.1,0-1.9-0.9-1.9-1.9v-47.4c0-1.1,0.9-1.9,1.9-1.9h29.2V272c0-1.1,0.9-1.9,1.9-1.9
					s1.9,0.9,1.9,1.9v4.1c0,1.1-0.9,1.9-1.9,1.9h-29.2v43.5h56.9c1.1,0,1.9,0.9,1.9,1.9v17.4C1758,341.9,1757.1,342.7,1756.1,342.7" />
                </g>
                <g>
                    <defs>
                        <rect id="SVGID_29_" x="1678" y="194.5" width="80" height="148.2" />
                    </defs>
                    <clipPath id="SVGID_30_">
                        <use xlink:href="#SVGID_29_" overflow="visible" />
                    </clipPath>
                    <path clip-path="url(#SVGID_30_)" fill="#1D1D1B" d="M1728.4,265.2c-1.1,0-1.9-0.9-1.9-1.9v-2.6h-29.2c-1.1,0-1.9-0.9-1.9-1.9
					v-44.9c0-1.1,0.9-1.9,1.9-1.9h56.9v-13.5h-72.3v64.9c0,1.1-0.9,1.9-1.9,1.9c-1.1,0-1.9-0.9-1.9-1.9v-66.8c0-1.1,0.9-1.9,1.9-1.9
					h76.1c1.1,0,1.9,0.9,1.9,1.9V214c0,1.1-0.9,1.9-1.9,1.9h-56.9V257h29.2c1.1,0,1.9,0.9,1.9,1.9v4.5
					C1730.4,264.3,1729.5,265.2,1728.4,265.2" />
                </g>
            </g>
        </g>
    </g>
    <g id="T">
        <g id="T_1_">
            <g>
                <g>
                    <defs>
                        <rect id="SVGID_31_" x="1766" y="194.5" width="80" height="148.2" />
                    </defs>
                    <clipPath id="SVGID_32_">
                        <use xlink:href="#SVGID_31_" overflow="visible" />
                    </clipPath>
                    <path clip-path="url(#SVGID_32_)" fill="#1D1D1B" d="M1801.7,342.7h-4.6c-1.1,0-1.9-0.9-1.9-1.9V215.7h-27.3
					c-1.1,0-1.9-0.9-1.9-1.9v-17.4c0-1.1,0.9-1.9,1.9-1.9h33.8c1.1,0,1.9,0.9,1.9,1.9s-0.9,1.9-1.9,1.9h-31.8v13.5h27.3
					c1.1,0,1.9,0.9,1.9,1.9v125.1h2.7c1.1,0,1.9,0.9,1.9,1.9C1803.6,341.9,1802.7,342.7,1801.7,342.7" />
                </g>
                <g>
                    <defs>
                        <rect id="SVGID_33_" x="1766" y="194.5" width="80" height="148.2" />
                    </defs>
                    <clipPath id="SVGID_34_">
                        <use xlink:href="#SVGID_33_" overflow="visible" />
                    </clipPath>
                    <path clip-path="url(#SVGID_34_)" fill="#1D1D1B" d="M1814.9,342.7h-4.4c-1.1,0-1.9-0.9-1.9-1.9c0-1.1,0.9-1.9,1.9-1.9h2.5
					V213.8c0-1.1,0.9-1.9,1.9-1.9h27.3v-13.5h-31.7c-1.1,0-1.9-0.9-1.9-1.9s0.9-1.9,1.9-1.9h33.6c1.1,0,1.9,0.9,1.9,1.9v17.4
					c0,1.1-0.9,1.9-1.9,1.9h-27.3v125.1C1816.8,341.9,1815.9,342.7,1814.9,342.7" />
                </g>
            </g>
        </g>
    </g>
    <g id="_x2D_">
        <g id="_x2D__1_">
            <g>
                <g>
                    <defs>
                        <rect id="SVGID_35_" x="1368" y="434" width="111" height="21" />
                    </defs>
                    <clipPath id="SVGID_36_">
                        <use xlink:href="#SVGID_35_" overflow="visible" />
                    </clipPath>
                    <path clip-path="url(#SVGID_36_)" fill="#1D1D1B" d="M1477.1,442.3c-1.1,0-1.9-0.9-1.9-1.9v-2.5h-103.3v2.5
					c0,1.1-0.9,1.9-1.9,1.9s-1.9-0.9-1.9-1.9V436c0-1.1,0.9-1.9,1.9-1.9h107.2c1.1,0,1.9,0.9,1.9,1.9v4.4
					C1479,441.4,1478.1,442.3,1477.1,442.3" />
                </g>
                <g>
                    <defs>
                        <rect id="SVGID_37_" x="1368" y="434" width="111" height="21" />
                    </defs>
                    <clipPath id="SVGID_38_">
                        <use xlink:href="#SVGID_37_" overflow="visible" />
                    </clipPath>
                    <path clip-path="url(#SVGID_38_)" fill="#1D1D1B" d="M1477.1,455h-107.2c-1.1,0-1.9-0.9-1.9-1.9v-4.3c0-1.1,0.9-1.9,1.9-1.9
					s1.9,0.9,1.9,1.9v2.3h103.3v-2.3c0-1.1,0.9-1.9,1.9-1.9s1.9,0.9,1.9,1.9v4.3C1479,454.1,1478.1,455,1477.1,455" />
                </g>
            </g>
        </g>
    </g>
    <g id="K">
        <g id="K_1_">
            <g>
                <g>
                    <defs>
                        <rect id="SVGID_39_" x="1525" y="380.8" width="90.7" height="148.2" />
                    </defs>
                    <clipPath id="SVGID_40_">
                        <use xlink:href="#SVGID_39_" overflow="visible" />
                    </clipPath>
                    <path clip-path="url(#SVGID_40_)" fill="#1D1D1B" d="M1545.1,453.4c-0.2,0-0.4,0-0.6-0.1c-0.8-0.2-1.4-1-1.4-1.8v-66.8h-14.4
					v55.1c0,1.1-0.9,1.9-1.9,1.9s-1.9-0.9-1.9-1.9v-57c0-1.1,0.9-1.9,1.9-1.9h18.2c1.1,0,1.9,0.9,1.9,1.9v62.4l42.2-63.4
					c0.4-0.5,1-0.9,1.6-0.9h21.6c0.7,0,1.4,0.4,1.7,1c0.3,0.6,0.3,1.4-0.1,2l-39.9,59.7c-0.6,0.9-1.8,1.1-2.7,0.5
					c-0.9-0.6-1.1-1.8-0.5-2.7l37.9-56.7h-17l-45.2,67.9C1546.4,453.1,1545.8,453.4,1545.1,453.4" />
                </g>
                <g>
                    <defs>
                        <rect id="SVGID_41_" x="1525" y="380.8" width="90.7" height="148.2" />
                    </defs>
                    <clipPath id="SVGID_42_">
                        <use xlink:href="#SVGID_41_" overflow="visible" />
                    </clipPath>
                    <path clip-path="url(#SVGID_42_)" fill="#1D1D1B" d="M1613.8,529h-20.3c-0.7,0-1.4-0.4-1.7-1.1l-31.6-66.6l-13.1,18.9v46.9
					c0,1.1-0.9,1.9-1.9,1.9H1527c-1.1,0-1.9-0.9-1.9-1.9v-78.7c0-1.1,0.9-1.9,1.9-1.9s1.9,0.9,1.9,1.9v76.7h14.4v-45.6
					c0-0.4,0.1-0.8,0.3-1.1l15.3-22.1c0.4-0.6,1.1-0.9,1.7-0.8c0.7,0.1,1.3,0.5,1.6,1.1l32.5,68.5h16l-36.1-74
					c-0.5-1-0.1-2.1,0.9-2.6s2.1-0.1,2.6,0.9l37.5,76.8c0.3,0.6,0.3,1.3-0.1,1.9C1615,528.7,1614.4,529,1613.8,529" />
                </g>
            </g>
        </g>
    </g>
    <g id="B">
        <g id="B_1_">
            <g>
                <g>
                    <defs>
                        <rect id="SVGID_43_" x="1636" y="380.7" width="84.7" height="148.3" />
                    </defs>
                    <clipPath id="SVGID_44_">
                        <use xlink:href="#SVGID_43_" overflow="visible" />
                    </clipPath>
                    <path clip-path="url(#SVGID_44_)" fill="#1D1D1B" d="M1676.2,529h-38.3c-1.1,0-1.9-0.9-1.9-1.9v-69.5c0-1.1,0.9-1.9,1.9-1.9
					s1.9,0.9,1.9,1.9v67.5h36.4c11.2,0,21.4-3.5,28.7-10c7.8-6.9,11.9-16.6,11.9-28.2c0-12.6-6-24.4-16.1-31.5
					c-0.5-0.3-0.8-0.9-0.8-1.5s0.2-1.2,0.7-1.5c8.7-7.3,13.7-18.1,13.7-29.6c0-21.8-16.4-38.2-38.1-38.2h-36.4v64.3
					c0,1.1-0.9,1.9-1.9,1.9s-1.9-0.9-1.9-1.9v-66.2c0-1.1,0.9-1.9,1.9-1.9h38.3c11.6,0,22.3,4.4,30.1,12.3
					c7.6,7.8,11.8,18.4,11.8,29.7c0,11.8-4.8,23-13.3,31c9.9,8,15.8,20.2,15.8,33.2c0,12.7-4.6,23.5-13.2,31.1
					C1699.5,525.1,1688.4,529,1676.2,529" />
                </g>
                <g>
                    <defs>
                        <rect id="SVGID_45_" x="1636" y="380.7" width="84.7" height="148.3" />
                    </defs>
                    <clipPath id="SVGID_46_">
                        <use xlink:href="#SVGID_45_" overflow="visible" />
                    </clipPath>
                    <path clip-path="url(#SVGID_46_)" fill="#1D1D1B" d="M1675.6,448.1h-20.1c-1.1,0-1.9-0.9-1.9-1.9V400c0-1.1,0.9-1.9,1.9-1.9
					h20.1c12.7,0,22.1,7.7,24.5,20.1c0.2,1-0.5,2.1-1.5,2.2c-1,0.2-2-0.5-2.2-1.5c-2-10.5-10-17-20.7-17h-18.2v42.3h18.2
					c10.8,0,18.7-6.5,20.7-17c0.2-1,1.2-1.7,2.2-1.5s1.7,1.2,1.5,2.2C1697.7,440.4,1688.4,448.1,1675.6,448.1" />
                </g>
                <g>
                    <defs>
                        <rect id="SVGID_47_" x="1636" y="380.7" width="84.7" height="148.3" />
                    </defs>
                    <clipPath id="SVGID_48_">
                        <use xlink:href="#SVGID_47_" overflow="visible" />
                    </clipPath>
                    <path clip-path="url(#SVGID_48_)" fill="#1D1D1B" d="M1675.6,512.2h-20.1c-1.1,0-1.9-0.9-1.9-1.9v-47.4c0-1.1,0.9-1.9,1.9-1.9
					h20.1c13.7,0,24.6,8.3,27,20.6c0.2,1-0.5,2.1-1.5,2.3c-1,0.2-2.1-0.5-2.3-1.5c-2.1-10.5-11.4-17.5-23.3-17.5h-18.2v43.5h18.2
					c13,0,21-6.1,23.3-17.5c0.2-1,1.2-1.7,2.3-1.5c1,0.2,1.7,1.2,1.5,2.3C1700,504.9,1690.4,512.2,1675.6,512.2" />
                </g>
            </g>
        </g>
    </g>
    <g id="H_2_">
        <g id="H_3_">
            <g>
                <g>
                    <defs>
                        <rect id="SVGID_49_" x="1741" y="380.8" width="80.6" height="148.2" />
                    </defs>
                    <clipPath id="SVGID_50_">
                        <use xlink:href="#SVGID_49_" overflow="visible" />
                    </clipPath>
                    <path clip-path="url(#SVGID_50_)" fill="#1D1D1B" d="M1819.7,450.8c-1.1,0-1.9-0.9-1.9-1.9v-64.3h-13.5V445
					c0,1.1-0.9,1.9-1.9,1.9h-42.1c-1.1,0-1.9-0.9-1.9-1.9v-60.4h-13.5v64.3c0,1.1-0.9,1.9-1.9,1.9c-1.1,0-1.9-0.9-1.9-1.9v-66.2
					c0-1.1,0.9-1.9,1.9-1.9h17.4c1.1,0,1.9,0.9,1.9,1.9v60.4h38.2v-60.4c0-1.1,0.9-1.9,1.9-1.9h17.4c1.1,0,1.9,0.9,1.9,1.9v66.2
					C1821.6,450,1820.8,450.8,1819.7,450.8" />
                </g>
                <g>
                    <defs>
                        <rect id="SVGID_51_" x="1741" y="380.8" width="80.6" height="148.2" />
                    </defs>
                    <clipPath id="SVGID_52_">
                        <use xlink:href="#SVGID_51_" overflow="visible" />
                    </clipPath>
                    <path clip-path="url(#SVGID_52_)" fill="#1D1D1B" d="M1819.7,529h-17.4c-1.1,0-1.9-0.9-1.9-1.9v-62.8h-38.2v62.8
					c0,1.1-0.9,1.9-1.9,1.9h-17.4c-1.1,0-1.9-0.9-1.9-1.9v-69.5c0-1.1,0.9-1.9,1.9-1.9c1.1,0,1.9,0.9,1.9,1.9v67.5h13.5v-62.8
					c0-1.1,0.9-1.9,1.9-1.9h42.1c1.1,0,1.9,0.9,1.9,1.9v62.8h13.5v-67.5c0-1.1,0.9-1.9,1.9-1.9s1.9,0.9,1.9,1.9v69.5
					C1821.6,528.1,1820.8,529,1819.7,529" />
                </g>
            </g>
        </g>
    </g>
    <g id="Pil">
        <g id="Pil_1_">
            <g>
                <g>
                    <defs>
                        <rect id="SVGID_53_" x="1676" y="54.2" width="89.6" height="46.8" />
                    </defs>
                    <clipPath id="SVGID_54_">
                        <use xlink:href="#SVGID_53_" overflow="visible" />
                    </clipPath>
                    <path clip-path="url(#SVGID_54_)" fill="#1D1D1B" d="M1720.8,101c-0.5,0-1-0.2-1.4-0.6l-42.9-42.9c-0.6-0.6-0.7-1.4-0.4-2.1
					c0.3-0.7,1-1.2,1.8-1.2h38.3c1.1,0,1.9,0.9,1.9,1.9s-0.9,1.9-1.9,1.9h-33.6l38.2,38.2L1759,58h-33.4c-1.1,0-1.9-0.9-1.9-1.9
					s0.9-1.9,1.9-1.9h38.1c0.8,0,1.5,0.5,1.8,1.2s0.1,1.6-0.4,2.1l-42.9,42.9C1721.8,100.8,1721.3,101,1720.8,101" />
                </g>
            </g>
        </g>
    </g>
    <g id="Søg">
        <g id="Søg_1_">
            <circle fill="none" stroke="#000000" stroke-width="10" stroke-miterlimit="10" cx="1430" cy="646" r="44" />
            <path stroke="#000000" stroke-width="3" stroke-miterlimit="10" d="M1493.6,715.1l-34-34c-2-2-2-5.3,0-7.3l0,0c2-2,5.3-2,7.3,0
			l34,34c2,2,2,5.3,0,7.3l0,0C1498.9,717.1,1495.6,717.1,1493.6,715.1z" />
        </g>
    </g>
    <g id="Layer_30">
    </g>
</svg>
